<?xml version="1.0" encoding="UTF-8" standalone="no"?><!-- Generator: Gravit.io --><svg xmlns="http://www.w3.org/2000/svg" xmlns:xlink="http://www.w3.org/1999/xlink" style="isolation:isolate" viewBox="0 0 350 156" width="350pt" height="156pt"><defs><clipPath id="_clipPath_1wpKcGJQiYJ8LdNRGeBgq6i3G0aulPWx"><rect width="350" height="156"/></clipPath></defs><g clip-path="url(#_clipPath_1wpKcGJQiYJ8LdNRGeBgq6i3G0aulPWx)"><rect width="350" height="156" style="fill:rgb(0,0,0)" fill-opacity="0"/><g style="mix-blend-mode:normal;" opacity="0.71"><path d="M 10.075 1 L 339.925 1 C 345.486 1 350 5.514 350 11.075 L 350 145.925 C 350 151.486 345.486 156 339.925 156 L 10.075 156 C 4.514 156 0 151.486 0 145.925 L 0 11.075 C 0 5.514 4.514 1 10.075 1 Z" style="stroke:none;fill:#EBEBEB;stroke-miterlimit:10;"/><clipPath id="_clipPath_6L6PSANyz7BYK6xjhbGTdCfgTzltQ13j"><path d="M 10.075 1 L 339.925 1 C 345.486 1 350 5.514 350 11.075 L 350 145.925 C 350 151.486 345.486 156 339.925 156 L 10.075 156 C 4.514 156 0 151.486 0 145.925 L 0 11.075 C 0 5.514 4.514 1 10.075 1 Z" style="stroke:none;fill:#EBEBEB;stroke-miterlimit:10;"/></clipPath><g clip-path="url(#_clipPath_6L6PSANyz7BYK6xjhbGTdCfgTzltQ13j)"><path d=" M -17 35.75 C -17 12.156 3.616 -7 29.01 -7 C 54.403 -7 106 25.406 106 49 C 106 64.194 61.093 33.076 44 49 C 31.588 60.563 43.041 92 34 92 C 8.606 92 -17 59.344 -17 35.75 Z " fill="rgb(209,209,209)" fill-opacity="0.32"/><ellipse vector-effect="non-scaling-stroke" cx="326.5" cy="134.5" rx="62.5" ry="56.00000000000001" fill="rgb(209,209,209)" fill-opacity="0.32"/><path d=" M 85.777 99.632 C 124.67 86.392 117.334 126.907 142.047 127.767 C 179.951 129.087 164.656 98.724 184.25 83.91 Q 218.177 58.257 209.074 154.247 L 75.02 154.247 Q 41.798 114.604 85.777 99.632 Z " fill="rgb(209,209,209)" fill-opacity="0.32"/></g></g></g></svg>